inDegrees=no
DataType=double
version=3
OpenSimVersion=4.4-2022-10-11-798caa840
endheader
time	elv_angle	shoulder_elv	shoulder_rot	elbow_flexion	pro_sup	deviation	flexion
3.6031277150	0.2616344683	0.6475308922	-0.0826214111	1.5019451509	0.0000000000	0.0000000000	0.0000000000
3.6072980017	0.2604880332	0.6469878439	-0.0822593789	1.5022468444	0.0000000000	0.0000000000	0.0000000000
3.6114682884	0.2593337755	0.6464410903	-0.0818948765	1.5025505964	0.0000000000	0.0000000000	0.0000000000
3.6156385752	0.2581717804	0.6458906716	-0.0815279306	1.5028563846	0.0000000000	0.0000000000	0.0000000000
3.6198088619	0.2570021337	0.6453366284	-0.0811585685	1.5031641863	0.0000000000	0.0000000000	0.0000000000
3.6239791486	0.2558249227	0.6447790021	-0.0807868177	1.5034739787	0.0000000000	0.0000000000	0.0000000000
3.6281494353	0.2546402355	0.6442178345	-0.0804127059	1.5037857385	0.0000000000	0.0000000000	0.0000000000
3.6323197220	0.2534481614	0.6436531679	-0.0800362615	1.5040994422	0.0000000000	0.0000000000	0.0000000000
3.6364900087	0.2522487909	0.6430850450	-0.0796575129	1.5044150660	0.0000000000	0.0000000000	0.0000000000
3.6406602954	0.2510422152	0.6425135091	-0.0792764890	1.5047325860	0.0000000000	0.0000000000	0.0000000000
3.6448305821	0.2498285267	0.6419386040	-0.0788932190	1.5050519777	0.0000000000	0.0000000000	0.0000000000
3.6490008688	0.2486078190	0.6413603740	-0.0785077323	1.5053732165	0.0000000000	0.0000000000	0.0000000000
3.6531711555	0.2473801862	0.6407788638	-0.0781200588	1.5056962778	0.0000000000	0.0000000000	0.0000000000
3.6573414422	0.2461457239	0.6401941185	-0.0777302286	1.5060211363	0.0000000000	0.0000000000	0.0000000000
3.6615117289	0.2449045283	0.6396061837	-0.0773382721	1.5063477667	0.0000000000	0.0000000000	0.0000000000
3.6656820156	0.2436566966	0.6390151056	-0.0769442200	1.5066761435	0.0000000000	0.0000000000	0.0000000000
3.6698523023	0.2424023271	0.6384209306	-0.0765481033	1.5070062407	0.0000000000	0.0000000000	0.0000000000
3.6740225891	0.2411415189	0.6378237056	-0.0761499533	1.5073380324	0.0000000000	0.0000000000	0.0000000000
3.6781928758	0.2398743718	0.6372234780	-0.0757498016	1.5076714921	0.0000000000	0.0000000000	0.0000000000
3.6823631625	0.2386009868	0.6366202956	-0.0753476800	1.5080065934	0.0000000000	0.0000000000	0.0000000000
3.6865334492	0.2373214655	0.6360142066	-0.0749436207	1.5083433096	0.0000000000	0.0000000000	0.0000000000
3.6907037359	0.2360359105	0.6354052595	-0.0745376560	1.5086816135	0.0000000000	0.0000000000	0.0000000000
3.6948740226	0.2347444253	0.6347935033	-0.0741298185	1.5090214780	0.0000000000	0.0000000000	0.0000000000
3.6990443093	0.2334471138	0.6341789874	-0.0737201412	1.5093628758	0.0000000000	0.0000000000	0.0000000000
3.7032145960	0.2321440813	0.6335617615	-0.0733086573	1.5097057791	0.0000000000	0.0000000000	0.0000000000
3.7073848827	0.2308354334	0.6329418756	-0.0728954000	1.5100501601	0.0000000000	0.0000000000	0.0000000000
3.7115551694	0.2295212766	0.6323193803	-0.0724804031	1.5103959909	0.0000000000	0.0000000000	0.0000000000
3.7157254561	0.2282017182	0.6316943263	-0.0720637005	1.5107432431	0.0000000000	0.0000000000	0.0000000000
3.7198957428	0.2268768662	0.6310667648	-0.0716453262	1.5110918883	0.0000000000	0.0000000000	0.0000000000
3.7240660295	0.2255468293	0.6304367474	-0.0712253145	1.5114418980	0.0000000000	0.0000000000	0.0000000000
3.7282363162	0.2242117170	0.6298043258	-0.0708037001	1.5117932434	0.0000000000	0.0000000000	0.0000000000
3.7324066030	0.2228716393	0.6291695521	-0.0703805177	1.5121458954	0.0000000000	0.0000000000	0.0000000000
3.7365768897	0.2215267070	0.6285324789	-0.0699558022	1.5124998250	0.0000000000	0.0000000000	0.0000000000
3.7407471764	0.2201770315	0.6278931589	-0.0695295889	1.5128550027	0.0000000000	0.0000000000	0.0000000000
3.7449174631	0.2188227249	0.6272516453	-0.0691019131	1.5132113992	0.0000000000	0.0000000000	0.0000000000
3.7490877498	0.2174638997	0.6266079913	-0.0686728104	1.5135689848	0.0000000000	0.0000000000	0.0000000000
3.7532580365	0.2161006694	0.6259622506	-0.0682423166	1.5139277296	0.0000000000	0.0000000000	0.0000000000
3.7574283232	0.2147331477	0.6253144771	-0.0678104677	1.5142876037	0.0000000000	0.0000000000	0.0000000000
3.7615986099	0.2133614490	0.6246647251	-0.0673772997	1.5146485771	0.0000000000	0.0000000000	0.0000000000
3.7657688966	0.2119856884	0.6240130490	-0.0669428490	1.5150106193	0.0000000000	0.0000000000	0.0000000000
3.7699391833	0.2106059813	0.6233595036	-0.0665071520	1.5153737001	0.0000000000	0.0000000000	0.0000000000
3.7741094700	0.2092224438	0.6227041437	-0.0660702454	1.5157377890	0.0000000000	0.0000000000	0.0000000000
3.7782797567	0.2078351924	0.6220470246	-0.0656321660	1.5161028551	0.0000000000	0.0000000000	0.0000000000
3.7824500434	0.2064443442	0.6213882018	-0.0651929508	1.5164688678	0.0000000000	0.0000000000	0.0000000000
3.7866203301	0.2050500166	0.6207277308	-0.0647526368	1.5168357961	0.0000000000	0.0000000000	0.0000000000
3.7907906169	0.2036523276	0.6200656676	-0.0643112614	1.5172036090	0.0000000000	0.0000000000	0.0000000000
3.7949609036	0.2022513957	0.6194020683	-0.0638688618	1.5175722753	0.0000000000	0.0000000000	0.0000000000
3.7991311903	0.2008473396	0.6187369891	-0.0634254757	1.5179417637	0.0000000000	0.0000000000	0.0000000000
3.8033014770	0.1994402786	0.6180704865	-0.0629811406	1.5183120430	0.0000000000	0.0000000000	0.0000000000
3.8074717637	0.1980303323	0.6174026172	-0.0625358944	1.5186830814	0.0000000000	0.0000000000	0.0000000000
3.8116420504	0.1966176208	0.6167334381	-0.0620897750	1.5190548476	0.0000000000	0.0000000000	0.0000000000
3.8158123371	0.1952022643	0.6160630061	-0.0616428203	1.5194273099	0.0000000000	0.0000000000	0.0000000000
3.8199826238	0.1937843837	0.6153913784	-0.0611950685	1.5198004364	0.0000000000	0.0000000000	0.0000000000
3.8241529105	0.1923640999	0.6147186124	-0.0607465579	1.5201741952	0.0000000000	0.0000000000	0.0000000000
3.8283231972	0.1909415343	0.6140447655	-0.0602973266	1.5205485546	0.0000000000	0.0000000000	0.0000000000
3.8324934839	0.1895168086	0.6133698955	-0.0598474132	1.5209234824	0.0000000000	0.0000000000	0.0000000000
3.8366637706	0.1880900447	0.6126940599	-0.0593968562	1.5212989466	0.0000000000	0.0000000000	0.0000000000
